<svg xmlns="http://www.w3.org/2000/svg" version="1.1" xmlns:xlink="http://www.w3.org/1999/xlink" xmlns:svgjs="http://svgjs.com/svgjs" width="1440" height="560" preserveAspectRatio="none" viewBox="0 0 1440 560"><g mask="url(&quot;#SvgjsMask1025&quot;)" fill="none"><rect width="1440" height="560" x="0" y="0" fill="#0e2a47"></rect><path d="M 0,261 C 57.6,212.6 172.8,35.8 288,19 C 403.2,2.2 460.8,180.6 576,177 C 691.2,173.4 748.8,-12 864,1 C 979.2,14 1036.8,220.6 1152,242 C 1267.2,263.4 1382.4,134.8 1440,108L1440 560L0 560z" fill="#184a7e"></path><path d="M 0,473 C 96,449 288,351.4 480,353 C 672,354.6 768,479.6 960,481 C 1152,482.4 1344,384.2 1440,360L1440 560L0 560z" fill="#2264ab"></path></g><defs><mask id="SvgjsMask1025"><rect width="1440" height="560" fill="#ffffff"></rect></mask></defs></svg>